<?xml version="1.0" standalone="no"?>
<svg xmlns="http://www.w3.org/2000/svg" viewBox="0 0 102.676 118.56" width="102.676" height="118.56"><polygon fill="#000000" points="102.676,29.64 102.676,88.92 51.338,118.56 0,88.92 0,29.64 51.338,0"></polygon><g fill="white" color="white" transform="translate(29.338 22.5) scale(0.8461539)"><svg width="52.0" height="52.0" x="0.0" y="0.0" viewBox="0 0 52 52"><path fill="currentColor" fill-rule="evenodd" d="M18.22 33.35s9.278 9.366 25.673 11.515a26.024 26.024 0 0 1-4.652 3.512l-.054.034a25.875 25.875 0 0 1-13.82 3.58 26.054 26.054 0 0 1-4.701-.545c-.167-.035-.333-.078-.5-.116-2.487-6.099-2.5-12.173-2.247-15.465.12-1.574.301-2.515.301-2.515zM15.745 22.9S12.273 35.616 18.61 50.89a26.12 26.12 0 0 1-5.368-2.273l-.055-.03A25.865 25.865 0 0 1 3.175 38.408a26.147 26.147 0 0 1-1.878-4.343c-.054-.163-.099-.328-.15-.492 4.038-5.202 9.293-8.25 12.27-9.678 1.423-.683 2.328-.997 2.328-.997zm35.536-2.96c.445 1.86.695 3.795.716 5.786l.002.064a25.868 25.868 0 0 1-3.81 13.76 26.134 26.134 0 0 1-2.821 3.797c-.115.127-.235.249-.352.374-6.524-.895-11.79-3.921-14.516-5.786-1.302-.892-2.026-1.517-2.026-1.517S41.223 33.065 51.28 19.94zM6.983 8.25c6.525.895 11.792 3.922 14.517 5.786 1.302.89 2.026 1.517 2.026 1.517S10.778 18.904.718 32.028a26.047 26.047 0 0 1-.715-5.784L0 26.181A25.871 25.871 0 0 1 3.81 12.42a26.18 26.18 0 0 1 2.822-3.797c.114-.128.235-.25.351-.375zM33.39 1.07a26.021 26.021 0 0 1 5.368 2.272l.055.03a25.864 25.864 0 0 1 10.012 10.18 25.98 25.98 0 0 1 1.878 4.342c.053.163.098.327.149.492-4.038 5.203-9.292 8.25-12.27 9.678-1.422.682-2.327.997-2.327.997s3.471-12.719-2.865-27.991zM26.134 0l.503.007c1.582.04 3.157.221 4.7.545.167.036.333.079.5.117 2.487 6.098 2.499 12.172 2.247 15.465-.12 1.573-.301 2.515-.301 2.515S24.506 9.283 8.11 7.135a26.1 26.1 0 0 1 4.651-3.513c.019-.01.036-.023.055-.033A25.877 25.877 0 0 1 26.637.009z"></path></svg></g><path fill="white" fill-rule="nonzero" d="M2.83 19.94L2.83 19.94Q2.83 20.66 2.44 21.11Q2.04 21.56 1.41 21.56Q0.78 21.56 0.39 21.11Q0 20.66 0 20.19Q0 19.71 0.03 18.37L0.03 18.37Q0.14 15.23 0.14 11.61Q0.14 7.98 0.07 4.91Q0 1.85 0 1.76L0 1.76Q0 0.95 0.41 0.48Q0.81 0 1.40 0L1.40 0Q2.30 0 2.80 1.09L2.80 1.09L9.04 14.50Q11.62 9.07 14.73 2.13L14.73 2.13Q15.34 0.76 15.68 0.38Q16.02 0 16.65 0Q17.28 0 17.68 0.46Q18.09 0.92 18.09 1.76L18.09 1.76Q17.95 2.49 17.95 8.12Q17.95 13.75 18.03 16.80Q18.12 19.85 18.12 19.94L18.12 19.94Q18.12 20.66 17.72 21.11Q17.33 21.56 16.70 21.56Q16.07 21.56 15.68 21.11Q15.29 20.66 15.29 20.17Q15.29 19.68 15.32 18.37L15.32 18.37Q15.48 13.47 15.48 10.86L15.48 10.86L15.48 6.58L10.42 17.25Q9.94 18.23 9.13 18.23Q8.32 18.23 7.81 17.19L7.81 17.19L2.66 6.58L2.66 10.86Q2.66 13.75 2.74 16.80Q2.83 19.85 2.83 19.94ZM24.61 0.14L29.51 0.28L35.20 0.14Q36.79 0.14 36.79 1.29L36.79 1.29Q36.79 1.99 36.22 3.00Q35.64 4.00 34.01 6.43Q32.37 8.85 31.08 10.98L31.08 10.98L26.29 18.84Q27.89 18.98 29.86 18.98Q31.84 18.98 33.57 18.89Q35.31 18.79 35.80 18.79Q36.29 18.79 36.75 19.14Q37.21 19.49 37.21 20.10Q37.21 20.72 36.75 21.07Q36.29 21.42 35.53 21.42L35.53 21.42L30.63 21.28L24.22 21.42Q22.62 21.42 22.62 20.22L22.62 20.22Q22.62 19.54 23.31 18.38Q24.00 17.22 25.75 14.62Q27.50 12.01 28.90 9.72L28.90 9.72L33.15 2.69Q31.89 2.58 30.10 2.58Q28.31 2.58 26.57 2.67Q24.84 2.77 24.35 2.77Q23.86 2.77 23.39 2.42Q22.93 2.07 22.93 1.46Q22.93 0.84 23.39 0.49Q23.86 0.14 24.61 0.14L24.61 0.14Z" transform="translate(32.732, 74.5)"></path></svg>